# This file uses meters as units for non-parametric coordinates.

mtllib Env_Floor.mtl
g default
v -0.000031 0.000488 500.000000
v -0.000031 0.000488 -500.000000
v -2000.000000 0.000000 500.000000
v -2000.000122 0.000000 -500.000000
v 2000.000000 0.000000 500.000000
v 2000.000000 0.000000 -500.000000
vt 0.000000 0.500000
vt 1.000000 0.500000
vt 1.000000 1.000000
vt 0.000000 1.000000
vt 0.000000 0.000000
vt 1.000000 0.000000
vt 1.000000 0.500000
vt 0.000000 0.500000
vn -0.000000 1.000000 0.000000
vn 0.000000 1.000000 0.000000
vn 0.000000 1.000000 0.000000
vn -0.000000 1.000000 0.000000
vn 0.000000 1.000000 0.000000
vn 0.000000 1.000000 0.000000
s 1
g Env_Floor
usemtl lambert12SG
f 3/1/1 1/2/2 2/3/3 4/4/4
f 1/5/2 5/6/5 6/7/6 2/8/3
