# This file uses meters as units for non-parametric coordinates.

mtllib Env_Village_LandscapeC.mtl
g default
v -1000.000000 0.000000 -500.000000
v -800.000000 0.000000 -500.000000
v -600.000000 0.000000 -500.000000
v -400.000000 0.000000 -500.000000
v -200.000000 0.000000 -500.000000
v 0.000000 0.000000 -500.000000
v 200.000000 0.000000 -500.000000
v 400.000000 0.000000 -500.000000
v 600.000000 0.000000 -500.000000
v 800.000000 0.000000 -500.000000
v 1000.000000 0.000000 -500.000000
v -1000.000000 0.000000 -700.000000
v -800.000000 0.000000 -700.000000
v -600.000000 0.000000 -700.000000
v -400.000000 0.000000 -700.000000
v -200.000000 0.000000 -700.000000
v 0.000000 0.000000 -700.000000
v 200.000000 0.000000 -700.000000
v 400.000000 0.000000 -700.000000
v 600.000000 0.000000 -700.000000
v 800.000000 0.000000 -700.000000
v 1000.000000 0.000000 -700.000000
v -1000.000000 0.460746 -900.000000
v -800.000000 0.290639 -900.000000
v -600.000000 0.000000 -900.000000
v -400.000000 0.000000 -900.000000
v -200.000000 0.185167 -900.000000
v 0.000000 4.450345 -900.000000
v 200.000000 7.338264 -900.000000
v 400.000000 4.450345 -900.000000
v 600.000000 0.185167 -900.000000
v 800.000000 0.290639 -900.000000
v 1000.000000 0.460746 -900.000000
v -1000.000000 8.387251 -1100.000000
v -800.000000 7.513024 -1100.000000
v -600.000000 5.207747 -1100.000000
v -400.000000 2.550492 -1100.000000
v -200.000000 11.371793 -1100.000000
v 0.000000 28.242123 -1100.000000
v 200.000000 36.529118 -1100.000000
v 400.000000 30.607449 -1100.000000
v 600.000000 16.288900 -1100.000000
v 800.000000 7.698190 -1100.000000
v 1000.000000 8.387251 -1100.000000
v -1000.000000 25.100161 -1300.000000
v -800.000000 23.433762 -1300.000000
v -600.000000 18.835350 -1300.000000
v -400.000000 16.890358 -1300.000000
v -200.000000 34.166401 -1300.000000
v 0.000000 57.448799 -1300.000000
v 200.000000 74.400314 -1300.000000
v 400.000000 68.738426 -1300.000000
v 600.000000 47.133190 -1300.000000
v 800.000000 27.884102 -1300.000000
v 1000.000000 25.100161 -1300.000000
v -1000.000000 48.234871 -1500.000000
v -800.000000 45.745026 -1500.000000
v -600.000000 38.757278 -1500.000000
v -400.000000 35.978733 -1500.000000
v -200.000000 53.734257 -1500.000000
v 0.000000 76.000137 -1500.000000
v 200.000000 99.791588 -1500.000000
v 400.000000 97.116516 -1500.000000
v 600.000000 74.995781 -1500.000000
v 800.000000 53.083282 -1500.000000
v 1000.000000 48.234871 -1500.000000
v -1000.000000 74.518127 -1700.000000
v -800.000000 71.236710 -1700.000000
v -600.000000 61.948177 -1700.000000
v -400.000000 52.685219 -1700.000000
v -200.000000 60.707401 -1700.000000
v 0.000000 73.730774 -1700.000000
v 200.000000 100.941330 -1700.000000
v 400.000000 104.269493 -1700.000000
v 600.000000 89.881836 -1700.000000
v 800.000000 75.527649 -1700.000000
v 1000.000000 74.518127 -1700.000000
v -1000.000000 100.231224 -1900.000000
v -800.000000 96.253433 -1900.000000
v -600.000000 84.938210 -1900.000000
v -400.000000 68.459183 -1900.000000
v -200.000000 64.672646 -1900.000000
v 0.000000 65.845169 -1900.000000
v 200.000000 89.716949 -1900.000000
v 400.000000 96.097298 -1900.000000
v 600.000000 95.577522 -1900.000000
v 800.000000 96.377403 -1900.000000
v 1000.000000 100.231224 -1900.000000
v -1000.000000 121.736153 -2100.000000
v -800.000000 117.214355 -2100.000000
v -600.000000 104.539711 -2100.000000
v -400.000000 98.349716 -2100.000000
v -200.000000 96.622841 -2100.000000
v 0.000000 87.315857 -2100.000000
v 200.000000 103.355553 -2100.000000
v 400.000000 102.421455 -2100.000000
v 600.000000 104.663681 -2100.000000
v 800.000000 117.214355 -2100.000000
v 1000.000000 121.736153 -2100.000000
v -1000.000000 135.990265 -2300.000000
v -800.000000 131.122421 -2300.000000
v -600.000000 122.322113 -2300.000000
v -400.000000 130.328400 -2300.000000
v -200.000000 139.882614 -2300.000000
v 0.000000 129.503799 -2300.000000
v 200.000000 139.882614 -2300.000000
v 400.000000 130.328400 -2300.000000
v 600.000000 122.322113 -2300.000000
v 800.000000 131.122421 -2300.000000
v 1000.000000 135.990265 -2300.000000
v -1000.000000 140.976791 -2500.000000
v -800.000000 135.990265 -2500.000000
v -600.000000 130.200714 -2500.000000
v -400.000000 143.898575 -2500.000000
v -200.000000 158.005035 -2500.000000
v 0.000000 148.914917 -2500.000000
v 200.000000 158.005035 -2500.000000
v 400.000000 143.898575 -2500.000000
v 600.000000 130.200714 -2500.000000
v 800.000000 135.990265 -2500.000000
v 1000.000000 140.976791 -2500.000000
vt 0.000000 0.000000
vt 0.100000 0.000000
vt 0.200000 0.000000
vt 0.300000 0.000000
vt 0.400000 0.000000
vt 0.500000 0.000000
vt 0.600000 0.000000
vt 0.700000 0.000000
vt 0.800000 0.000000
vt 0.900000 0.000000
vt 1.000000 0.000000
vt 0.000000 0.100000
vt 0.100000 0.100000
vt 0.200000 0.100000
vt 0.300000 0.100000
vt 0.400000 0.100000
vt 0.500000 0.100000
vt 0.600000 0.100000
vt 0.700000 0.100000
vt 0.800000 0.100000
vt 0.900000 0.100000
vt 1.000000 0.100000
vt 0.000000 0.200000
vt 0.100000 0.200000
vt 0.200000 0.200000
vt 0.300000 0.200000
vt 0.400000 0.200000
vt 0.500000 0.200000
vt 0.600000 0.200000
vt 0.700000 0.200000
vt 0.800000 0.200000
vt 0.900000 0.200000
vt 1.000000 0.200000
vt 0.000000 0.300000
vt 0.100000 0.300000
vt 0.200000 0.300000
vt 0.300000 0.300000
vt 0.400000 0.300000
vt 0.500000 0.300000
vt 0.600000 0.300000
vt 0.700000 0.300000
vt 0.800000 0.300000
vt 0.900000 0.300000
vt 1.000000 0.300000
vt 0.000000 0.400000
vt 0.100000 0.400000
vt 0.200000 0.400000
vt 0.300000 0.400000
vt 0.400000 0.400000
vt 0.500000 0.400000
vt 0.600000 0.400000
vt 0.700000 0.400000
vt 0.800000 0.400000
vt 0.900000 0.400000
vt 1.000000 0.400000
vt 0.000000 0.500000
vt 0.100000 0.500000
vt 0.200000 0.500000
vt 0.300000 0.500000
vt 0.400000 0.500000
vt 0.500000 0.500000
vt 0.600000 0.500000
vt 0.700000 0.500000
vt 0.800000 0.500000
vt 0.900000 0.500000
vt 1.000000 0.500000
vt 0.000000 0.600000
vt 0.100000 0.600000
vt 0.200000 0.600000
vt 0.300000 0.600000
vt 0.400000 0.600000
vt 0.500000 0.600000
vt 0.600000 0.600000
vt 0.700000 0.600000
vt 0.800000 0.600000
vt 0.900000 0.600000
vt 1.000000 0.600000
vt 0.000000 0.700000
vt 0.100000 0.700000
vt 0.200000 0.700000
vt 0.300000 0.700000
vt 0.400000 0.700000
vt 0.500000 0.700000
vt 0.600000 0.700000
vt 0.700000 0.700000
vt 0.800000 0.700000
vt 0.900000 0.700000
vt 1.000000 0.700000
vt 0.000000 0.800000
vt 0.100000 0.800000
vt 0.200000 0.800000
vt 0.300000 0.800000
vt 0.400000 0.800000
vt 0.500000 0.800000
vt 0.600000 0.800000
vt 0.700000 0.800000
vt 0.800000 0.800000
vt 0.900000 0.800000
vt 1.000000 0.800000
vt 0.000000 0.900000
vt 0.100000 0.900000
vt 0.200000 0.900000
vt 0.300000 0.900000
vt 0.400000 0.900000
vt 0.500000 0.900000
vt 0.600000 0.900000
vt 0.700000 0.900000
vt 0.800000 0.900000
vt 0.900000 0.900000
vt 1.000000 0.900000
vt 0.000000 1.000000
vt 0.100000 1.000000
vt 0.200000 1.000000
vt 0.300000 1.000000
vt 0.400000 1.000000
vt 0.500000 1.000000
vt 0.600000 1.000000
vt 0.700000 1.000000
vt 0.800000 1.000000
vt 0.900000 1.000000
vt 1.000000 1.000000
vn 0.000000 1.000000 0.000000
vn 0.000000 1.000000 0.000000
vn 0.000288 1.000000 0.000651
vn 0.000213 1.000000 0.000939
vn 0.000000 1.000000 0.000000
vn 0.000182 1.000000 0.000182
vn 0.000000 1.000000 0.000000
vn -0.000116 1.000000 0.000116
vn 0.000000 1.000000 0.000000
vn -0.002781 0.999992 0.003013
vn 0.000000 1.000000 0.000000
vn -0.004470 0.999937 0.010264
vn 0.000000 1.000000 0.000000
vn 0.000000 0.999892 0.014734
vn 0.000000 1.000000 0.000000
vn 0.004470 0.999937 0.010264
vn 0.000000 1.000000 0.000000
vn 0.002600 0.999992 0.003195
vn 0.000000 1.000000 0.000000
vn -0.000172 1.000000 0.000767
vn 0.000000 1.000000 0.000000
vn -0.000213 1.000000 0.000939
vn 0.002563 0.999837 0.017885
vn 0.001518 0.999801 0.019872
vn 0.003465 0.999912 0.012798
vn -0.004084 0.999900 0.013549
vn -0.021597 0.999208 0.033423
vn -0.024615 0.997577 0.065076
vn -0.001475 0.996614 0.082207
vn 0.021543 0.997239 0.071071
vn 0.019488 0.998831 0.044233
vn 0.004593 0.999676 0.025037
vn -0.001286 0.999797 0.020103
vn 0.008166 0.998397 0.056013
vn 0.004474 0.998211 0.059625
vn 0.010461 0.998768 0.048506
vn -0.017355 0.998390 0.054012
vn -0.059868 0.994525 0.085646
vn -0.060508 0.989910 0.128128
vn -0.009926 0.987818 0.155295
vn 0.046325 0.987629 0.149810
vn 0.056269 0.991760 0.115091
vn 0.023364 0.996607 0.078925
vn 0.001542 0.997874 0.065156
vn 0.015676 0.995519 0.093250
vn 0.008332 0.995236 0.097143
vn 0.017313 0.996112 0.086381
vn -0.032194 0.995527 0.088822
vn -0.090914 0.990540 0.102790
vn -0.093596 0.987831 0.124221
vn -0.028514 0.988485 0.148610
vn 0.061363 0.985684 0.157041
vn 0.091607 0.985710 0.141365
vn 0.048737 0.991893 0.117362
vn 0.012084 0.994301 0.105921
vn 0.023459 0.992884 0.116755
vn 0.012320 0.992620 0.120637
vn 0.027722 0.994033 0.105496
vn -0.027450 0.995747 0.087947
vn -0.088028 0.993971 0.065366
vn -0.107078 0.992828 0.053171
vn -0.052265 0.996503 0.065199
vn 0.054541 0.994703 0.087124
vn 0.097543 0.989740 0.104407
vn 0.056382 0.991618 0.116256
vn 0.016742 0.992581 0.120426
vn 0.030949 0.991864 0.123483
vn 0.016156 0.991762 0.127074
vn 0.046357 0.992980 0.108824
vn 0.004794 0.997090 0.076085
vn -0.049615 0.998388 0.027580
vn -0.094344 0.995466 -0.012129
vn -0.070009 0.997356 -0.019497
vn 0.025626 0.999658 0.005280
vn 0.063061 0.996656 0.051966
vn 0.032912 0.994546 0.098967
vn 0.003745 0.992974 0.118277
vn 0.037456 0.992913 0.112787
vn 0.019565 0.993095 0.115675
vn 0.057660 0.992289 0.109718
vn 0.030854 0.993941 0.105496
vn -0.002992 0.996660 0.081606
vn -0.060361 0.997342 0.040808
vn -0.066331 0.997744 0.010371
vn -0.001237 0.999964 0.008432
vn 0.008362 0.999026 0.043333
vn -0.006857 0.995874 0.090487
vn -0.013948 0.993786 0.110433
vn 0.039394 0.995264 0.088869
vn 0.022271 0.995880 0.087899
vn 0.041157 0.993460 0.106509
vn 0.011499 0.989200 0.146120
vn 0.015763 0.985312 0.170034
vn -0.023837 0.987522 0.155664
vn -0.037989 0.991672 0.123061
vn 0.005649 0.995884 0.090467
vn -0.019075 0.996902 0.076310
vn -0.032675 0.996081 0.082190
vn -0.022117 0.995897 0.087746
vn 0.034491 0.998081 0.051425
vn 0.024021 0.998585 0.047436
vn 0.007849 0.997364 0.072138
vn -0.034157 0.993271 0.110659
vn 0.004694 0.989860 0.141966
vn -0.004182 0.988957 0.148142
vn -0.007217 0.991305 0.131383
vn 0.038288 0.994108 0.101404
vn -0.005307 0.997571 0.069455
vn -0.034414 0.998088 0.051348
vn -0.024021 0.998585 0.047436
vn 0.030526 0.999135 0.028225
vn 0.024621 0.999394 0.024621
vn -0.008907 0.999048 0.042709
vn -0.056498 0.996205 0.066213
vn -0.005181 0.996263 0.086215
vn 0.000000 0.995627 0.093424
vn 0.005181 0.996263 0.086215
vn 0.056498 0.996205 0.066213
vn 0.008907 0.999048 0.042709
vn -0.030526 0.999135 0.028225
vn -0.024621 0.999394 0.024621
s 1
g Env_Village_LandscapeC
usemtl lambert15SG
f 1/1/1 2/2/2 13/13/3 12/12/4
f 2/2/2 3/3/5 14/14/6 13/13/3
f 3/3/5 4/4/7 15/15/8 14/14/6
f 4/4/7 5/5/9 16/16/10 15/15/8
f 5/5/9 6/6/11 17/17/12 16/16/10
f 6/6/11 7/7/13 18/18/14 17/17/12
f 7/7/13 8/8/15 19/19/16 18/18/14
f 8/8/15 9/9/17 20/20/18 19/19/16
f 9/9/17 10/10/19 21/21/20 20/20/18
f 10/10/19 11/11/21 22/22/22 21/21/20
f 12/12/4 13/13/3 24/24/23 23/23/24
f 13/13/3 14/14/6 25/25/25 24/24/23
f 14/14/6 15/15/8 26/26/26 25/25/25
f 15/15/8 16/16/10 27/27/27 26/26/26
f 16/16/10 17/17/12 28/28/28 27/27/27
f 17/17/12 18/18/14 29/29/29 28/28/28
f 18/18/14 19/19/16 30/30/30 29/29/29
f 19/19/16 20/20/18 31/31/31 30/30/30
f 20/20/18 21/21/20 32/32/32 31/31/31
f 21/21/20 22/22/22 33/33/33 32/32/32
f 23/23/24 24/24/23 35/35/34 34/34/35
f 24/24/23 25/25/25 36/36/36 35/35/34
f 25/25/25 26/26/26 37/37/37 36/36/36
f 26/26/26 27/27/27 38/38/38 37/37/37
f 27/27/27 28/28/28 39/39/39 38/38/38
f 28/28/28 29/29/29 40/40/40 39/39/39
f 29/29/29 30/30/30 41/41/41 40/40/40
f 30/30/30 31/31/31 42/42/42 41/41/41
f 31/31/31 32/32/32 43/43/43 42/42/42
f 32/32/32 33/33/33 44/44/44 43/43/43
f 34/34/35 35/35/34 46/46/45 45/45/46
f 35/35/34 36/36/36 47/47/47 46/46/45
f 36/36/36 37/37/37 48/48/48 47/47/47
f 37/37/37 38/38/38 49/49/49 48/48/48
f 38/38/38 39/39/39 50/50/50 49/49/49
f 39/39/39 40/40/40 51/51/51 50/50/50
f 40/40/40 41/41/41 52/52/52 51/51/51
f 41/41/41 42/42/42 53/53/53 52/52/52
f 42/42/42 43/43/43 54/54/54 53/53/53
f 43/43/43 44/44/44 55/55/55 54/54/54
f 45/45/46 46/46/45 57/57/56 56/56/57
f 46/46/45 47/47/47 58/58/58 57/57/56
f 47/47/47 48/48/48 59/59/59 58/58/58
f 48/48/48 49/49/49 60/60/60 59/59/59
f 49/49/49 50/50/50 61/61/61 60/60/60
f 50/50/50 51/51/51 62/62/62 61/61/61
f 51/51/51 52/52/52 63/63/63 62/62/62
f 52/52/52 53/53/53 64/64/64 63/63/63
f 53/53/53 54/54/54 65/65/65 64/64/64
f 54/54/54 55/55/55 66/66/66 65/65/65
f 56/56/57 57/57/56 68/68/67 67/67/68
f 57/57/56 58/58/58 69/69/69 68/68/67
f 58/58/58 59/59/59 70/70/70 69/69/69
f 59/59/59 60/60/60 71/71/71 70/70/70
f 60/60/60 61/61/61 72/72/72 71/71/71
f 61/61/61 62/62/62 73/73/73 72/72/72
f 62/62/62 63/63/63 74/74/74 73/73/73
f 63/63/63 64/64/64 75/75/75 74/74/74
f 64/64/64 65/65/65 76/76/76 75/75/75
f 65/65/65 66/66/66 77/77/77 76/76/76
f 67/67/68 68/68/67 79/79/78 78/78/79
f 68/68/67 69/69/69 80/80/80 79/79/78
f 69/69/69 70/70/70 81/81/81 80/80/80
f 70/70/70 71/71/71 82/82/82 81/81/81
f 71/71/71 72/72/72 83/83/83 82/82/82
f 72/72/72 73/73/73 84/84/84 83/83/83
f 73/73/73 74/74/74 85/85/85 84/84/84
f 74/74/74 75/75/75 86/86/86 85/85/85
f 75/75/75 76/76/76 87/87/87 86/86/86
f 76/76/76 77/77/77 88/88/88 87/87/87
f 78/78/79 79/79/78 90/90/89 89/89/90
f 79/79/78 80/80/80 91/91/91 90/90/89
f 80/80/80 81/81/81 92/92/92 91/91/91
f 81/81/81 82/82/82 93/93/93 92/92/92
f 82/82/82 83/83/83 94/94/94 93/93/93
f 83/83/83 84/84/84 95/95/95 94/94/94
f 84/84/84 85/85/85 96/96/96 95/95/95
f 85/85/85 86/86/86 97/97/97 96/96/96
f 86/86/86 87/87/87 98/98/98 97/97/97
f 87/87/87 88/88/88 99/99/99 98/98/98
f 89/89/90 90/90/89 101/101/100 100/100/101
f 90/90/89 91/91/91 102/102/102 101/101/100
f 91/91/91 92/92/92 103/103/103 102/102/102
f 92/92/92 93/93/93 104/104/104 103/103/103
f 93/93/93 94/94/94 105/105/105 104/104/104
f 94/94/94 95/95/95 106/106/106 105/105/105
f 95/95/95 96/96/96 107/107/107 106/106/106
f 96/96/96 97/97/97 108/108/108 107/107/107
f 97/97/97 98/98/98 109/109/109 108/108/108
f 98/98/98 99/99/99 110/110/110 109/109/109
f 100/100/101 101/101/100 112/112/111 111/111/112
f 101/101/100 102/102/102 113/113/113 112/112/111
f 102/102/102 103/103/103 114/114/114 113/113/113
f 103/103/103 104/104/104 115/115/115 114/114/114
f 104/104/104 105/105/105 116/116/116 115/115/115
f 105/105/105 106/106/106 117/117/117 116/116/116
f 106/106/106 107/107/107 118/118/118 117/117/117
f 107/107/107 108/108/108 119/119/119 118/118/118
f 108/108/108 109/109/109 120/120/120 119/119/119
f 109/109/109 110/110/110 121/121/121 120/120/120
