# This file uses meters as units for non-parametric coordinates.

mtllib Env_Village_LandscapeB.mtl
g default
v -1000.000000 0.000000 -500.000000
v -800.000000 0.000000 -500.000000
v -600.000000 0.000000 -500.000000
v -400.000000 0.000000 -500.000000
v -200.000000 0.000000 -500.000000
v 0.000000 0.000000 -500.000000
v 200.000000 0.000000 -500.000000
v 400.000000 0.000000 -500.000000
v 600.000000 0.000000 -500.000000
v 800.000000 0.000000 -500.000000
v 1000.000000 0.000000 -500.000000
v -1000.000000 0.000000 -700.000000
v -800.000000 0.000000 -700.000000
v -600.000000 0.000000 -700.000000
v -400.000000 0.000000 -700.000000
v -200.000000 0.000000 -700.000000
v 0.000000 0.000000 -700.000000
v 200.000000 0.000000 -700.000000
v 400.000000 0.000000 -700.000000
v 600.000000 0.000000 -700.000000
v 800.000000 0.000000 -700.000000
v 1000.000000 0.000000 -700.000000
v -1000.000000 0.460746 -900.000000
v -800.000000 0.290639 -900.000000
v -600.000000 0.000000 -900.000000
v -400.000000 0.000000 -900.000000
v -200.000000 0.000000 -900.000000
v 0.000000 -0.000000 -900.000000
v 200.000000 0.000000 -900.000000
v 400.000000 0.000000 -900.000000
v 600.000000 0.000000 -900.000000
v 800.000000 0.290639 -900.000000
v 1000.000000 0.460746 -900.000000
v -1000.000000 8.387251 -1100.000000
v -800.000000 7.513024 -1100.000000
v -600.000000 5.207747 -1100.000000
v -400.000000 2.365325 -1100.000000
v -200.000000 0.290636 -1100.000000
v 0.000000 0.000004 -1100.000000
v 200.000000 0.290636 -1100.000000
v 400.000000 2.365325 -1100.000000
v 600.000000 5.207747 -1100.000000
v 800.000000 7.513024 -1100.000000
v 1000.000000 8.387251 -1100.000000
v -1000.000000 25.100161 -1300.000000
v -800.000000 23.433764 -1300.000000
v -600.000000 18.835350 -1300.000000
v -400.000000 12.440014 -1300.000000
v -200.000000 5.924271 -1300.000000
v 0.000000 1.218418 -1300.000000
v 200.000000 5.924271 -1300.000000
v 400.000000 12.440014 -1300.000000
v 600.000000 18.835350 -1300.000000
v 800.000000 23.433764 -1300.000000
v 1000.000000 25.100161 -1300.000000
v -1000.000000 48.234871 -1500.000000
v -800.000000 45.745022 -1500.000000
v -600.000000 38.757278 -1500.000000
v -400.000000 25.830389 -1500.000000
v -200.000000 12.577931 -1500.000000
v 0.000000 5.069216 -1500.000000
v 200.000000 17.432362 -1500.000000
v 400.000000 28.640472 -1500.000000
v 600.000000 38.757278 -1500.000000
v 800.000000 45.745022 -1500.000000
v 1000.000000 48.234871 -1500.000000
v -1000.000000 74.518127 -1700.000000
v -800.000000 71.236710 -1700.000000
v -600.000000 52.733368 -1700.000000
v -400.000000 25.176327 -1700.000000
v -200.000000 10.443025 -1700.000000
v 0.000000 7.640201 -1700.000000
v 200.000000 33.051357 -1700.000000
v 400.000000 49.558758 -1700.000000
v 600.000000 61.948204 -1700.000000
v 800.000000 71.236710 -1700.000000
v 1000.000000 74.518127 -1700.000000
v -1000.000000 100.231224 -1900.000000
v -800.000000 92.431213 -1900.000000
v -600.000000 64.297333 -1900.000000
v -400.000000 47.212570 -1900.000000
v -200.000000 45.003761 -1900.000000
v 0.000000 50.387867 -1900.000000
v 200.000000 84.490387 -1900.000000
v 400.000000 97.287437 -1900.000000
v 600.000000 90.583908 -1900.000000
v 800.000000 96.253418 -1900.000000
v 1000.000000 100.231224 -1900.000000
v -1000.000000 121.736153 -2100.000000
v -800.000000 111.526817 -2100.000000
v -600.000000 101.125839 -2100.000000
v -400.000000 105.586830 -2100.000000
v -200.000000 120.725052 -2100.000000
v 0.000000 132.360809 -2100.000000
v 200.000000 167.322723 -2100.000000
v 400.000000 167.247864 -2100.000000
v 600.000000 136.876358 -2100.000000
v 800.000000 118.376801 -2100.000000
v 1000.000000 121.736153 -2100.000000
v -1000.000000 135.990265 -2300.000000
v -800.000000 135.443329 -2300.000000
v -600.000000 150.596054 -2300.000000
v -400.000000 180.659714 -2300.000000
v -200.000000 213.721130 -2300.000000
v 0.000000 227.394302 -2300.000000
v 200.000000 253.574768 -2300.000000
v 400.000000 232.854141 -2300.000000
v 600.000000 179.110199 -2300.000000
v 800.000000 139.708252 -2300.000000
v 1000.000000 135.990265 -2300.000000
v -1000.000000 140.976791 -2500.000000
v -800.000000 148.595352 -2500.000000
v -600.000000 184.724411 -2500.000000
v -400.000000 233.730103 -2500.000000
v -200.000000 276.605438 -2500.000000
v 0.000000 287.442383 -2500.000000
v 200.000000 300.825653 -2500.000000
v 400.000000 261.585571 -2500.000000
v 600.000000 195.959824 -2500.000000
v 800.000000 148.752228 -2500.000000
v 1000.000000 140.976791 -2500.000000
vt 0.000000 0.000000
vt 0.100000 0.000000
vt 0.200000 0.000000
vt 0.300000 0.000000
vt 0.400000 0.000000
vt 0.500000 0.000000
vt 0.600000 0.000000
vt 0.700000 0.000000
vt 0.800000 0.000000
vt 0.900000 0.000000
vt 1.000000 0.000000
vt 0.000000 0.100000
vt 0.100000 0.100000
vt 0.200000 0.100000
vt 0.300000 0.100000
vt 0.400000 0.100000
vt 0.500000 0.100000
vt 0.600000 0.100000
vt 0.700000 0.100000
vt 0.800000 0.100000
vt 0.900000 0.100000
vt 1.000000 0.100000
vt 0.000000 0.200000
vt 0.100000 0.200000
vt 0.200000 0.200000
vt 0.300000 0.200000
vt 0.400000 0.200000
vt 0.500000 0.200000
vt 0.600000 0.200000
vt 0.700000 0.200000
vt 0.800000 0.200000
vt 0.900000 0.200000
vt 1.000000 0.200000
vt 0.000000 0.300000
vt 0.100000 0.300000
vt 0.200000 0.300000
vt 0.300000 0.300000
vt 0.400000 0.300000
vt 0.500000 0.300000
vt 0.600000 0.300000
vt 0.700000 0.300000
vt 0.800000 0.300000
vt 0.900000 0.300000
vt 1.000000 0.300000
vt 0.000000 0.400000
vt 0.100000 0.400000
vt 0.200000 0.400000
vt 0.300000 0.400000
vt 0.400000 0.400000
vt 0.500000 0.400000
vt 0.600000 0.400000
vt 0.700000 0.400000
vt 0.800000 0.400000
vt 0.900000 0.400000
vt 1.000000 0.400000
vt 0.000000 0.500000
vt 0.100000 0.500000
vt 0.200000 0.500000
vt 0.300000 0.500000
vt 0.400000 0.500000
vt 0.500000 0.500000
vt 0.600000 0.500000
vt 0.700000 0.500000
vt 0.800000 0.500000
vt 0.900000 0.500000
vt 1.000000 0.500000
vt 0.000000 0.600000
vt 0.100000 0.600000
vt 0.200000 0.600000
vt 0.300000 0.600000
vt 0.400000 0.600000
vt 0.500000 0.600000
vt 0.600000 0.600000
vt 0.700000 0.600000
vt 0.800000 0.600000
vt 0.900000 0.600000
vt 1.000000 0.600000
vt 0.000000 0.700000
vt 0.100000 0.700000
vt 0.200000 0.700000
vt 0.300000 0.700000
vt 0.400000 0.700000
vt 0.500000 0.700000
vt 0.600000 0.700000
vt 0.700000 0.700000
vt 0.800000 0.700000
vt 0.900000 0.700000
vt 1.000000 0.700000
vt 0.000000 0.800000
vt 0.100000 0.800000
vt 0.200000 0.800000
vt 0.300000 0.800000
vt 0.400000 0.800000
vt 0.500000 0.800000
vt 0.600000 0.800000
vt 0.700000 0.800000
vt 0.800000 0.800000
vt 0.900000 0.800000
vt 1.000000 0.800000
vt 0.000000 0.900000
vt 0.100000 0.900000
vt 0.200000 0.900000
vt 0.300000 0.900000
vt 0.400000 0.900000
vt 0.500000 0.900000
vt 0.600000 0.900000
vt 0.700000 0.900000
vt 0.800000 0.900000
vt 0.900000 0.900000
vt 1.000000 0.900000
vt 0.000000 1.000000
vt 0.100000 1.000000
vt 0.200000 1.000000
vt 0.300000 1.000000
vt 0.400000 1.000000
vt 0.500000 1.000000
vt 0.600000 1.000000
vt 0.700000 1.000000
vt 0.800000 1.000000
vt 0.900000 1.000000
vt 1.000000 1.000000
vn 0.000000 1.000000 0.000000
vn 0.000000 1.000000 0.000000
vn 0.000288 1.000000 0.000651
vn 0.000213 0.999999 0.000939
vn 0.000000 1.000000 0.000000
vn 0.000182 1.000000 0.000182
vn 0.000000 1.000000 0.000000
vn -0.000000 1.000000 0.000000
vn 0.000000 1.000000 0.000000
vn 0.000000 1.000000 0.000000
vn 0.000000 1.000000 0.000000
vn 0.000000 1.000000 0.000000
vn 0.000000 1.000000 0.000000
vn -0.000000 1.000000 0.000000
vn 0.000000 1.000000 0.000000
vn 0.000000 1.000000 0.000000
vn 0.000000 1.000000 0.000000
vn -0.000182 1.000000 0.000182
vn 0.000000 1.000000 0.000000
vn -0.000288 1.000000 0.000651
vn 0.000000 1.000000 0.000000
vn -0.000213 0.999999 0.000939
vn 0.002573 0.999837 0.017890
vn 0.001522 0.999800 0.019936
vn 0.003574 0.999914 0.012643
vn 0.003073 0.999975 0.006393
vn 0.001478 0.999997 0.001842
vn 0.000000 1.000000 0.000363
vn -0.001478 0.999997 0.001842
vn -0.003073 0.999975 0.006393
vn -0.003574 0.999914 0.012643
vn -0.002573 0.999837 0.017890
vn -0.001522 0.999800 0.019936
vn 0.008451 0.998360 0.056623
vn 0.004549 0.998157 0.060508
vn 0.013714 0.998861 0.045692
vn 0.014094 0.999439 0.030377
vn 0.009786 0.999831 0.015560
vn 0.000000 0.999960 0.008919
vn -0.009786 0.999831 0.015560
vn -0.014094 0.999439 0.030377
vn -0.013714 0.998861 0.045692
vn -0.008451 0.998360 0.056623
vn -0.004549 0.998157 0.060508
vn 0.016320 0.995404 0.094359
vn 0.008517 0.995091 0.098602
vn 0.030615 0.996320 0.080054
vn 0.035700 0.997750 0.056752
vn 0.027742 0.999074 0.032873
vn -0.002828 0.999703 0.024210
vn -0.030112 0.998760 0.039639
vn -0.032808 0.997408 0.064040
vn -0.028308 0.996202 0.082348
vn -0.016320 0.995405 0.094359
vn -0.008517 0.995091 0.098602
vn 0.032140 0.993423 0.109896
vn 0.012604 0.992482 0.121739
vn 0.063366 0.995171 0.074966
vn 0.067165 0.996783 0.043741
vn 0.045994 0.998758 0.019137
vn -0.018288 0.999432 0.028291
vn -0.065559 0.996109 0.058892
vn -0.053779 0.994488 0.090011
vn -0.042213 0.993359 0.107034
vn -0.024364 0.992765 0.117579
vn -0.012604 0.992482 0.121739
vn 0.062214 0.992607 0.104213
vn 0.022144 0.992372 0.121277
vn 0.092321 0.992268 0.082948
vn 0.070088 0.995101 0.069732
vn 0.028122 0.996452 0.079321
vn -0.038721 0.995688 0.084296
vn -0.104478 0.981644 0.159559
vn -0.058914 0.983626 0.170322
vn -0.031703 0.988672 0.146704
vn -0.026892 0.991360 0.128383
vn -0.016501 0.991787 0.126835
vn 0.065677 0.990632 0.119730
vn 0.039443 0.993618 0.105672
vn 0.078377 0.985830 0.148312
vn 0.046717 0.982585 0.179843
vn -0.004290 0.971488 0.237052
vn -0.086118 0.957043 0.276862
vn -0.110827 0.942282 0.315946
vn 0.008584 0.956210 0.292554
vn 0.003064 0.983360 0.181645
vn -0.005203 0.990468 0.137645
vn -0.018142 0.993178 0.115191
vn 0.028649 0.990470 0.134716
vn 0.031854 0.994809 0.096641
vn 0.027870 0.978656 0.203607
vn -0.043809 0.952108 0.302606
vn -0.069797 0.923706 0.376690
vn -0.104525 0.912189 0.396213
vn -0.066592 0.921560 0.382481
vn 0.097943 0.946070 0.308803
vn 0.112812 0.969446 0.217824
vn 0.022218 0.990798 0.133512
vn -0.006970 0.995283 0.096761
vn -0.018603 0.992703 0.119139
vn 0.004102 0.997562 0.069662
vn -0.100379 0.972516 0.210087
vn -0.147492 0.942601 0.299582
vn -0.114232 0.931704 0.344788
vn -0.096655 0.928722 0.357956
vn 0.014555 0.968993 0.246660
vn 0.168777 0.958298 0.230605
vn 0.209465 0.964510 0.160763
vn 0.093964 0.990723 0.098182
vn 0.012893 0.997767 0.065538
vn -0.093770 0.991032 0.095201
vn -0.017658 0.998818 0.045293
vn -0.182181 0.963087 0.198176
vn -0.180296 0.946296 0.268359
vn -0.071240 0.953933 0.291438
vn -0.086485 0.959999 0.266312
vn -0.017347 0.971633 0.235856
vn 0.162621 0.970921 0.175693
vn 0.271469 0.957180 0.100553
vn 0.151801 0.986929 0.054113
vn 0.028704 0.998973 0.035040
s 1
g Env_Village_LandscapeB
usemtl lambert14SG
f 1/1/1 2/2/2 13/13/3 12/12/4
f 2/2/2 3/3/5 14/14/6 13/13/3
f 3/3/5 4/4/7 15/15/8 14/14/6
f 4/4/7 5/5/9 16/16/10 15/15/8
f 5/5/9 6/6/11 17/17/12 16/16/10
f 6/6/11 7/7/13 18/18/14 17/17/12
f 7/7/13 8/8/15 19/19/16 18/18/14
f 8/8/15 9/9/17 20/20/18 19/19/16
f 9/9/17 10/10/19 21/21/20 20/20/18
f 10/10/19 11/11/21 22/22/22 21/21/20
f 12/12/4 13/13/3 24/24/23 23/23/24
f 13/13/3 14/14/6 25/25/25 24/24/23
f 14/14/6 15/15/8 26/26/26 25/25/25
f 15/15/8 16/16/10 27/27/27 26/26/26
f 16/16/10 17/17/12 28/28/28 27/27/27
f 17/17/12 18/18/14 29/29/29 28/28/28
f 18/18/14 19/19/16 30/30/30 29/29/29
f 19/19/16 20/20/18 31/31/31 30/30/30
f 20/20/18 21/21/20 32/32/32 31/31/31
f 21/21/20 22/22/22 33/33/33 32/32/32
f 23/23/24 24/24/23 35/35/34 34/34/35
f 24/24/23 25/25/25 36/36/36 35/35/34
f 25/25/25 26/26/26 37/37/37 36/36/36
f 26/26/26 27/27/27 38/38/38 37/37/37
f 27/27/27 28/28/28 39/39/39 38/38/38
f 28/28/28 29/29/29 40/40/40 39/39/39
f 29/29/29 30/30/30 41/41/41 40/40/40
f 30/30/30 31/31/31 42/42/42 41/41/41
f 31/31/31 32/32/32 43/43/43 42/42/42
f 32/32/32 33/33/33 44/44/44 43/43/43
f 34/34/35 35/35/34 46/46/45 45/45/46
f 35/35/34 36/36/36 47/47/47 46/46/45
f 36/36/36 37/37/37 48/48/48 47/47/47
f 37/37/37 38/38/38 49/49/49 48/48/48
f 38/38/38 39/39/39 50/50/50 49/49/49
f 39/39/39 40/40/40 51/51/51 50/50/50
f 40/40/40 41/41/41 52/52/52 51/51/51
f 41/41/41 42/42/42 53/53/53 52/52/52
f 42/42/42 43/43/43 54/54/54 53/53/53
f 43/43/43 44/44/44 55/55/55 54/54/54
f 45/45/46 46/46/45 57/57/56 56/56/57
f 46/46/45 47/47/47 58/58/58 57/57/56
f 47/47/47 48/48/48 59/59/59 58/58/58
f 48/48/48 49/49/49 60/60/60 59/59/59
f 49/49/49 50/50/50 61/61/61 60/60/60
f 50/50/50 51/51/51 62/62/62 61/61/61
f 51/51/51 52/52/52 63/63/63 62/62/62
f 52/52/52 53/53/53 64/64/64 63/63/63
f 53/53/53 54/54/54 65/65/65 64/64/64
f 54/54/54 55/55/55 66/66/66 65/65/65
f 56/56/57 57/57/56 68/68/67 67/67/68
f 57/57/56 58/58/58 69/69/69 68/68/67
f 58/58/58 59/59/59 70/70/70 69/69/69
f 59/59/59 60/60/60 71/71/71 70/70/70
f 60/60/60 61/61/61 72/72/72 71/71/71
f 61/61/61 62/62/62 73/73/73 72/72/72
f 62/62/62 63/63/63 74/74/74 73/73/73
f 63/63/63 64/64/64 75/75/75 74/74/74
f 64/64/64 65/65/65 76/76/76 75/75/75
f 65/65/65 66/66/66 77/77/77 76/76/76
f 67/67/68 68/68/67 79/79/78 78/78/79
f 68/68/67 69/69/69 80/80/80 79/79/78
f 69/69/69 70/70/70 81/81/81 80/80/80
f 70/70/70 71/71/71 82/82/82 81/81/81
f 71/71/71 72/72/72 83/83/83 82/82/82
f 72/72/72 73/73/73 84/84/84 83/83/83
f 73/73/73 74/74/74 85/85/85 84/84/84
f 74/74/74 75/75/75 86/86/86 85/85/85
f 75/75/75 76/76/76 87/87/87 86/86/86
f 76/76/76 77/77/77 88/88/88 87/87/87
f 78/78/79 79/79/78 90/90/89 89/89/90
f 79/79/78 80/80/80 91/91/91 90/90/89
f 80/80/80 81/81/81 92/92/92 91/91/91
f 81/81/81 82/82/82 93/93/93 92/92/92
f 82/82/82 83/83/83 94/94/94 93/93/93
f 83/83/83 84/84/84 95/95/95 94/94/94
f 84/84/84 85/85/85 96/96/96 95/95/95
f 85/85/85 86/86/86 97/97/97 96/96/96
f 86/86/86 87/87/87 98/98/98 97/97/97
f 87/87/87 88/88/88 99/99/99 98/98/98
f 89/89/90 90/90/89 101/101/100 100/100/101
f 90/90/89 91/91/91 102/102/102 101/101/100
f 91/91/91 92/92/92 103/103/103 102/102/102
f 92/92/92 93/93/93 104/104/104 103/103/103
f 93/93/93 94/94/94 105/105/105 104/104/104
f 94/94/94 95/95/95 106/106/106 105/105/105
f 95/95/95 96/96/96 107/107/107 106/106/106
f 96/96/96 97/97/97 108/108/108 107/107/107
f 97/97/97 98/98/98 109/109/109 108/108/108
f 98/98/98 99/99/99 110/110/110 109/109/109
f 100/100/101 101/101/100 112/112/111 111/111/112
f 101/101/100 102/102/102 113/113/113 112/112/111
f 102/102/102 103/103/103 114/114/114 113/113/113
f 103/103/103 104/104/104 115/115/115 114/114/114
f 104/104/104 105/105/105 116/116/116 115/115/115
f 105/105/105 106/106/106 117/117/117 116/116/116
f 106/106/106 107/107/107 118/118/118 117/117/117
f 107/107/107 108/108/108 119/119/119 118/118/118
f 108/108/108 109/109/109 120/120/120 119/119/119
f 109/109/109 110/110/110 121/121/121 120/120/120
